<svg width="82" height="69" viewBox="0 0 82 69" fill="none" xmlns="http://www.w3.org/2000/svg">
<g clip-path="url(#clip0_10_101)">
<path d="M81.7731 68.1322L23.2361 69L0 64.9503H36.2747L81.7731 68.1322Z" fill="#2A2B2D"/>
<path d="M67.4084 29.9533C72.58 29.9533 76.7724 25.8307 76.7724 20.7453C76.7724 15.6599 72.58 11.5373 67.4084 11.5373C62.2368 11.5373 58.0444 15.6599 58.0444 20.7453C58.0444 25.8307 62.2368 29.9533 67.4084 29.9533Z" fill="#FF8000"/>
<path d="M16.5652 65.4317C16.5652 65.4317 16.7022 62.6094 19.5101 62.9375Z" fill="#3F3D56"/>
<path d="M15.7718 62.746C16.5479 62.746 17.1771 62.1273 17.1771 61.3641C17.1771 60.6008 16.5479 59.9821 15.7718 59.9821C14.9956 59.9821 14.3665 60.6008 14.3665 61.3641C14.3665 62.1273 14.9956 62.746 15.7718 62.746Z" fill="black"/>
<path d="M15.9398 63.6911H15.5431V66.4217H15.9398V63.6911Z" fill="#3F3D56"/>
<path d="M62.8458 65.9137C62.8458 65.9137 62.9828 63.0915 65.7907 63.4196Z" fill="#3F3D56"/>
<path d="M62.0523 63.228C62.8285 63.228 63.4577 62.6093 63.4577 61.8461C63.4577 61.0829 62.8285 60.4642 62.0523 60.4642C61.2762 60.4642 60.647 61.0829 60.647 61.8461C60.647 62.6093 61.2762 63.228 62.0523 63.228Z" fill="black"/>
<path d="M62.2204 64.1732H61.8237V66.9038H62.2204V64.1732Z" fill="#3F3D56"/>
<path d="M69.6113 66.3959C69.6113 66.3959 69.7483 63.5736 72.5562 63.9017Z" fill="#3F3D56"/>
<path d="M68.8179 63.7102C69.5941 63.7102 70.2233 63.0915 70.2233 62.3283C70.2233 61.565 69.5941 60.9463 68.8179 60.9463C68.0418 60.9463 67.4126 61.565 67.4126 62.3283C67.4126 63.0915 68.0418 63.7102 68.8179 63.7102Z" fill="black"/>
<path d="M68.986 64.6553H68.5894V67.3859H68.986V64.6553Z" fill="#3F3D56"/>
<path d="M27.645 64.0818C27.645 64.0818 27.782 61.2596 30.5899 61.5876Z" fill="#3F3D56"/>
<path d="M26.8516 61.3961C27.6278 61.3961 28.257 60.7774 28.257 60.0142C28.257 59.251 27.6278 58.6323 26.8516 58.6323C26.0755 58.6323 25.4463 59.251 25.4463 60.0142C25.4463 60.7774 26.0755 61.3961 26.8516 61.3961Z" fill="black"/>
<path d="M27.0197 62.3413H26.623V65.0719H27.0197V62.3413Z" fill="#3F3D56"/>
<path d="M6.76001 64.5639C6.76001 64.5639 6.89698 61.7417 9.70489 62.0697Z" fill="#3F3D56"/>
<path d="M5.96662 61.8782C6.74277 61.8782 7.37196 61.2595 7.37196 60.4963C7.37196 59.733 6.74277 59.1143 5.96662 59.1143C5.19047 59.1143 4.56128 59.733 4.56128 60.4963C4.56128 61.2595 5.19047 61.8782 5.96662 61.8782Z" fill="black"/>
<path d="M6.13461 62.8234H5.73792V65.554H6.13461V62.8234Z" fill="#3F3D56"/>
<path d="M40.7384 59.6597C49.1946 59.6597 56.0497 52.9188 56.0497 44.6034C56.0497 36.2881 49.1946 29.5471 40.7384 29.5471C32.2821 29.5471 25.427 36.2881 25.427 44.6034C25.427 52.9188 32.2821 59.6597 40.7384 59.6597Z" fill="#3F3D56"/>
<path d="M31.0988 45.8121C31.4791 45.3644 31.9547 45.0043 32.492 44.7572C33.0293 44.5101 33.6152 44.382 34.2084 44.382C34.8016 44.382 35.3875 44.5101 35.9249 44.7572C36.4622 45.0043 36.9378 45.3644 37.318 45.8121C37.9687 45.2012 38.4185 44.4128 38.6093 43.5483C38.8001 42.6839 38.7233 41.783 38.3887 40.9619C38.0541 40.1407 37.4771 39.437 36.732 38.9413C35.987 38.4455 35.108 38.1806 34.2084 38.1806C33.3088 38.1806 32.4299 38.4455 31.6848 38.9413C30.9398 39.437 30.3628 40.1407 30.0282 40.9619C29.6936 41.783 29.6167 42.6839 29.8076 43.5483C29.9984 44.4128 30.4481 45.2012 31.0988 45.8121V45.8121Z" fill="white"/>
<path d="M43.2579 45.8121C43.6381 45.3644 44.1137 45.0043 44.6511 44.7572C45.1884 44.5101 45.7743 44.382 46.3675 44.382C46.9607 44.382 47.5466 44.5101 48.0839 44.7572C48.6212 45.0043 49.0968 45.3644 49.4771 45.8121C50.1278 45.2012 50.5775 44.4128 50.7683 43.5483C50.9592 42.6839 50.8823 41.783 50.5477 40.9619C50.2131 40.1407 49.6361 39.437 48.8911 38.9413C48.146 38.4455 47.2671 38.1806 46.3675 38.1806C45.4679 38.1806 44.5889 38.4455 43.8439 38.9413C43.0988 39.437 42.5218 40.1407 42.1872 40.9619C41.8526 41.783 41.7758 42.6839 41.9666 43.5483C42.1575 44.4128 42.6072 45.2012 43.2579 45.8121Z" fill="white"/>
<path d="M32.6723 42.6243C33.5278 42.6243 34.2214 41.9423 34.2214 41.101C34.2214 40.2597 33.5278 39.5777 32.6723 39.5777C31.8167 39.5777 31.1232 40.2597 31.1232 41.101C31.1232 41.9423 31.8167 42.6243 32.6723 42.6243Z" fill="#3F3D56"/>
<path d="M44.8308 42.6243C45.6864 42.6243 46.3799 41.9423 46.3799 41.101C46.3799 40.2597 45.6864 39.5777 44.8308 39.5777C43.9753 39.5777 43.2817 40.2597 43.2817 41.101C43.2817 41.9423 43.9753 42.6243 44.8308 42.6243Z" fill="#3F3D56"/>
<path d="M29.7051 50.1389C30.7 50.1389 31.5065 49.3458 31.5065 48.3675C31.5065 47.3893 30.7 46.5962 29.7051 46.5962C28.7103 46.5962 27.9038 47.3893 27.9038 48.3675C27.9038 49.3458 28.7103 50.1389 29.7051 50.1389Z" fill="#FF6584"/>
<path d="M50.4205 50.1389C51.4153 50.1389 52.2218 49.3458 52.2218 48.3675C52.2218 47.3893 51.4153 46.5962 50.4205 46.5962C49.4256 46.5962 48.6191 47.3893 48.6191 48.3675C48.6191 49.3458 49.4256 50.1389 50.4205 50.1389Z" fill="#FF6584"/>
<path d="M40.0628 44.8248L38.7118 50.5817L40.9634 48.3675L40.0628 44.8248Z" fill="#FF6584"/>
<path d="M47.0046 66.9665L45.4708 65.7006L45.5065 66.9665H45.0301L44.9921 65.628L42.9211 66.9665H42.0542L44.9766 65.0776L44.8634 61.1114L44.7788 58.116L45.254 58.1031L45.3398 61.1114L45.4529 65.0741L47.7453 66.9665H47.0046Z" fill="#3F3D56"/>
<path d="M39.7988 66.9665L38.265 65.7006L38.3007 66.9665H37.8256L37.7875 65.628L35.7166 66.9665H34.8496L37.7708 65.0776L37.6577 61.1114L37.5731 58.116L38.0494 58.1031L38.1352 61.1114L38.2471 65.0741L40.5396 66.9665H39.7988Z" fill="#3F3D56"/>
<path d="M40.9636 28.44C40.5434 28.44 40.1728 28.761 39.925 29.2539C39.7066 28.5127 39.2478 27.9972 38.7119 27.9972C38.6755 28.0008 38.6393 28.0067 38.6037 28.0151C38.3978 27.2237 37.919 26.6687 37.3609 26.6687C36.6147 26.6687 36.0099 27.66 36.0099 28.8829C36.0099 30.1057 36.6147 31.097 37.3609 31.097C37.3973 31.0935 37.4334 31.0875 37.4691 31.0792C37.675 31.8705 38.1538 32.4255 38.7119 32.4255C39.132 32.4255 39.5026 32.1046 39.7504 31.6117C39.9688 32.3529 40.4277 32.8684 40.9636 32.8684C41.7097 32.8684 42.3146 31.877 42.3146 30.6542C42.3146 29.4314 41.7097 28.44 40.9636 28.44Z" fill="#3F3D56"/>
<path d="M26.3667 50.3091C25.7753 50.3091 25.1897 50.1946 24.6433 49.972C24.097 49.7495 23.6005 49.4233 23.1824 49.0121C22.7642 48.6009 22.4325 48.1127 22.2062 47.5754C21.9798 47.0382 21.8634 46.4623 21.8634 45.8808V43.6666C21.8634 42.4921 22.3378 41.3658 23.1824 40.5353C24.0269 39.7048 25.1723 39.2383 26.3667 39.2383V39.2383V50.3091Z" fill="black"/>
<path d="M55.11 39.2383C55.7014 39.2383 56.287 39.3528 56.8333 39.5754C57.3797 39.7979 57.8762 40.1241 58.2943 40.5353C58.7125 40.9465 59.0442 41.4347 59.2705 41.972C59.4968 42.5092 59.6133 43.0851 59.6133 43.6666V45.8808C59.6133 46.4623 59.4968 47.0382 59.2705 47.5754C59.0442 48.1127 58.7125 48.6009 58.2943 49.0121C57.8762 49.4233 57.3797 49.7495 56.8333 49.972C56.287 50.1946 55.7014 50.3091 55.11 50.3091V50.3091V39.2383H55.11Z" fill="black"/>
<path d="M57.4698 44.0145H56.7553C56.7553 35.1039 49.3832 27.8545 40.3215 27.8545C31.2599 27.8545 23.8877 35.1039 23.8877 44.0145H23.1732C23.1732 34.7165 30.8659 27.1519 40.3215 27.1519C49.7772 27.1519 57.4698 34.7165 57.4698 44.0145Z" fill="black"/>
<path d="M15.8013 30.4728L15.8014 30.4725L15.4658 30.3351L14.0494 29.7463L13.5417 29.5353L13.5028 29.632L12.8208 31.3252L14.7401 32.124L14.7502 32.133L14.6208 32.4329C14.6031 32.4603 14.588 32.4893 14.5757 32.5194C14.4851 32.7444 14.6562 32.9681 14.818 33.0311C14.9797 33.0941 15.1843 32.9629 15.2749 32.7379C15.3643 32.516 15.277 32.2341 15.1193 32.166L15.1195 32.1658L14.7838 32.0283L13.6355 31.5893L14.2916 29.9603L14.1943 29.9224L13.538 31.5521L13.396 31.4978L14.0549 29.8618L14.0723 29.869L15.4221 30.4308L15.4321 30.4398L15.3028 30.7396C15.2851 30.7671 15.27 30.796 15.2577 30.8262C15.1671 31.0511 15.3382 31.2749 15.5 31.3379C15.6617 31.4009 15.8663 31.2696 15.9569 31.0447C16.0463 30.8228 15.9589 30.5409 15.8013 30.4728Z" fill="#3F3D56"/>
<path d="M22.4443 34.6297C21.7476 34.238 21.887 33.3784 21.887 33.3784C21.8695 32.82 21.4003 32.899 21.4003 32.899L21.2296 32.9373C21.1502 32.9011 21.0629 32.8852 20.9756 32.8911L20.7159 32.9341C21.3074 33.0708 21.2588 33.5573 21.2588 33.5573L21.3416 34.1262L19.7918 33.5114L19.9697 33.0989C19.9943 33.0608 20.0153 33.0205 20.0324 32.9787C20.1583 32.6662 19.9206 32.3554 19.6959 32.268C19.4713 32.1804 19.1871 32.3628 19.0613 32.6752C18.9371 32.9834 19.0585 33.3749 19.2774 33.4695L19.2772 33.4699L19.7434 33.6608L19.7469 33.65L22.4443 34.6297ZM21.6573 33.6301L21.707 34.1746C21.5315 33.9325 21.4491 33.637 21.4744 33.3407C21.4702 33.2353 21.4341 33.1336 21.3706 33.0486C21.4682 33.1101 21.5467 33.197 21.5973 33.2996C21.6479 33.4022 21.6687 33.5166 21.6573 33.6301V33.6301Z" fill="#3F3D56"/>
<path d="M10.6221 26.5764L10.6223 26.5761L10.1561 26.3851L8.20752 25.6403L8.69932 25.21C8.79553 25.0839 8.93761 24.9992 9.09583 24.9738C9.25406 24.9483 9.41618 24.9839 9.54829 25.0733L9.39567 24.8502C9.39567 24.8502 9.10876 24.4767 8.70715 24.8719C8.70715 24.8719 8.21023 25.5923 7.42969 25.4086L10.0954 26.5181L10.1094 26.5306L9.92975 26.9471C9.90516 26.9852 9.88418 27.0254 9.86708 27.0673C9.74124 27.3797 9.97891 27.6905 10.2036 27.778C10.4283 27.8655 10.7124 27.6831 10.8382 27.3707C10.9624 27.0625 10.841 26.671 10.6221 26.5764Z" fill="#3F3D56"/>
<path d="M17.7557 24.1386L17.5761 24.5551C17.5515 24.5932 17.5305 24.6334 17.5134 24.6753C17.3876 24.9877 17.6253 25.2985 17.8499 25.386C18.0746 25.4735 18.3588 25.2912 18.4846 24.9788C18.6087 24.6706 18.4874 24.2791 18.2685 24.1845L18.2687 24.1841L17.8024 23.9932L16.2075 23.3835L17.1188 21.1209L16.9838 21.0683L16.0721 23.3318L15.8749 23.2564L16.7901 20.9841L16.8142 20.9942L18.6889 21.7744L18.7029 21.7869L18.5233 22.2034C18.4987 22.2415 18.4777 22.2817 18.4606 22.3236C18.3348 22.636 18.5725 22.9468 18.7971 23.0343C19.0218 23.1218 19.306 22.9394 19.4318 22.627C19.5559 22.3188 19.4346 21.9273 19.2157 21.8327L19.2158 21.8324L18.7496 21.6415L16.8443 20.8494L16.8443 20.8494L16.7825 20.8237L16.0774 20.5306L15.076 23.0167L17.7417 24.1262L17.7557 24.1386Z" fill="#3F3D56"/>
<path d="M9.30807 11.4064L9.30839 11.4057L8.50581 11.0771L5.1515 9.79485L5.99809 9.05418C5.99809 9.05418 6.56123 8.28584 7.45954 8.81877L7.19684 8.43481C7.19684 8.43481 6.70293 7.79181 6.01158 8.47212C6.01158 8.47212 5.15616 9.71218 3.8125 9.39608L8.40135 11.306L8.42544 11.3274L8.11621 12.0444C8.07388 12.11 8.03776 12.1792 8.00832 12.2513C7.7917 12.7892 8.20082 13.3241 8.58758 13.4748C8.97434 13.6254 9.46349 13.3115 9.68012 12.7737C9.89377 12.2432 9.68496 11.5692 9.30807 11.4064Z" fill="#3F3D56"/>
<path d="M11.7712 22.1771C10.1054 21.2405 10.4387 19.1853 10.4387 19.1853C10.3968 17.8502 9.27499 18.0392 9.27499 18.0392L8.86672 18.1308C8.67707 18.0442 8.46823 18.0063 8.25963 18.0204L7.63858 18.1232C9.05275 18.4499 8.93656 19.6132 8.93656 19.6132L9.13469 20.9734L5.42917 19.5035L5.85463 18.517C5.91342 18.4259 5.96359 18.3297 6.00449 18.2296C6.30535 17.4826 5.73712 16.7396 5.19994 16.5304C4.66276 16.3212 3.98339 16.7571 3.68253 17.5041C3.38576 18.2409 3.67579 19.177 4.19925 19.4031L4.19881 19.404L5.31351 19.8605L5.32181 19.8347L11.7712 22.1771ZM9.88944 19.7872L10.0087 21.0936C9.30904 20.1803 9.45204 19.0953 9.45204 19.0953C9.44218 18.8433 9.35573 18.6 9.20387 18.3968C10.0076 18.8698 9.88943 19.7872 9.88943 19.7872H9.88944Z" fill="#3F3D56"/>
</g>
<defs>
<clipPath id="clip0_10_101">
<rect width="81.7731" height="70" fill="white" transform="translate(0 -1)"/>
</clipPath>
</defs>
</svg>
