<svg width="40" height="40" viewBox="0 0 40 40" fill="none" xmlns="http://www.w3.org/2000/svg">
<g clip-path="url(#clip0_10_56)">
<path d="M20 0C8.95496 0 0 8.95496 0 20C0 31.0463 8.95496 40 20 40C31.045 40 40 31.0463 40 20C39.9999 8.95496 31.0449 0 20 0ZM25.6024 35.2362C25.4873 33.6712 25.3586 31.7324 25.3511 30.9474C25.3011 30.3449 25.236 28.8124 23.7811 27.8337C29.5573 27.35 32.3061 24.1575 32.5036 19.9388C32.6687 17.5363 31.7136 15.4237 30.0174 13.7188C30.1037 11.8951 29.9624 9.73376 29.845 8.78388C28.5425 8.4089 25.505 10.0126 24.6562 10.6989C22.8661 10.0038 18.485 9.76013 15.8225 10.6989C13.9349 9.37141 11.7862 8.55142 10.615 8.78017C9.53371 11.1764 10.2288 13.4414 10.4399 13.7114C9.04737 14.9839 7.1049 16.5502 7.63243 19.8314C8.47865 24.6426 11.8637 27.2377 17.3136 27.8726C16.1512 28.1101 15.9548 28.9776 15.8573 29.3538C12.1973 30.8638 11.1512 28.4214 10.6886 27.7851C9.15241 25.8838 7.77358 26.4351 7.68859 26.4651C7.60607 26.495 7.54359 26.615 7.55238 26.6725C7.62982 27.0825 8.46615 27.4988 8.50735 27.5325C9.64108 28.3775 10.0611 29.9037 10.3198 30.3387C11.946 33.0125 15.7261 31.9037 15.7623 31.9263C15.7648 32.16 15.7361 34.1276 15.7136 35.6588C8.82123 33.7762 3.74997 27.4887 3.74997 20C3.74997 11.025 11.025 3.7501 19.9999 3.7501C28.9747 3.7501 36.2499 11.025 36.2499 20C36.2499 27.0037 31.8124 32.9524 25.6024 35.2362Z" fill="#32404F"/>
</g>
<defs>
<clipPath id="clip0_10_56">
<rect width="40" height="40" fill="white"/>
</clipPath>
</defs>
</svg>
