<svg width="40" height="40" viewBox="0 0 40 40" fill="none" xmlns="http://www.w3.org/2000/svg">
<g clip-path="url(#clip0_10_150)">
<path d="M20 -6.10352e-05C8.95496 -6.10352e-05 0 8.9549 0 19.9999C0 31.0462 8.95496 39.9999 20 39.9999C31.045 39.9999 40 31.0462 40 19.9999C39.9999 8.9549 31.0449 -6.10352e-05 20 -6.10352e-05ZM25.6024 35.2361C25.4873 33.6711 25.3586 31.7323 25.3511 30.9473C25.3011 30.3449 25.236 28.8124 23.7811 27.8337C29.5573 27.3499 32.3061 24.1574 32.5036 19.9387C32.6687 17.5363 31.7136 15.4237 30.0174 13.7187C30.1037 11.895 29.9624 9.7337 29.845 8.78382C28.5425 8.40884 25.505 10.0126 24.6562 10.6988C22.8661 10.0038 18.485 9.76007 15.8225 10.6988C13.9349 9.37135 11.7862 8.55136 10.615 8.78011C9.53371 11.1764 10.2288 13.4414 10.4399 13.7113C9.04737 14.9839 7.1049 16.5501 7.63243 19.8313C8.47865 24.6425 11.8637 27.2376 17.3136 27.8725C16.1512 28.1101 15.9548 28.9776 15.8573 29.3538C12.1973 30.8637 11.1512 28.4213 10.6886 27.7851C9.15241 25.8838 7.77358 26.4351 7.68859 26.465C7.60607 26.4949 7.54359 26.6149 7.55238 26.6725C7.62982 27.0825 8.46615 27.4988 8.50735 27.5324C9.64108 28.3774 10.0611 29.9037 10.3198 30.3387C11.946 33.0124 15.7261 31.9037 15.7623 31.9262C15.7648 32.1599 15.7361 34.1275 15.7136 35.6587C8.82123 33.7761 3.74997 27.4886 3.74997 19.9999C3.74997 11.0249 11.025 3.75004 19.9999 3.75004C28.9747 3.75004 36.2499 11.0249 36.2499 19.9999C36.2499 27.0036 31.8124 32.9523 25.6024 35.2361Z" fill="white"/>
</g>
<defs>
<clipPath id="clip0_10_150">
<rect width="40" height="40" fill="white"/>
</clipPath>
</defs>
</svg>
