<svg width="80" height="30" viewBox="0 0 80 30" fill="none" xmlns="http://www.w3.org/2000/svg">
<g clip-path="url(#clip0_10_153)">
<path d="M39.8459 9.26691L43.6502 9.01776C43.7331 9.66305 43.901 10.1543 44.1538 10.4916C44.5666 11.0382 45.1551 11.3115 45.9192 11.3115C46.4893 11.3115 46.9292 11.1721 47.2389 10.8932C47.3807 10.7774 47.4959 10.63 47.576 10.4618C47.6561 10.2935 47.6991 10.1086 47.7019 9.92076C47.6996 9.74064 47.6595 9.56324 47.5845 9.40099C47.5095 9.23874 47.4014 9.09557 47.2678 8.98151C46.9784 8.70568 46.2959 8.44444 45.2202 8.1978C43.4664 7.78707 42.2157 7.24044 41.468 6.5579C41.1042 6.23989 40.8137 5.84047 40.6181 5.38926C40.4224 4.93806 40.3266 4.44667 40.3379 3.95157C40.3407 3.2519 40.5421 2.56878 40.9167 1.98851C41.3446 1.3345 41.9489 0.827848 42.6532 0.532832C43.4249 0.179482 44.4861 0.00280762 45.8367 0.00280762C47.4902 0.00280762 48.751 0.323943 49.6193 0.966214C50.4875 1.60849 51.0041 2.62927 51.169 4.02858L47.3995 4.2581C47.303 3.65409 47.0927 3.21215 46.7686 2.93229C46.4444 2.65243 46.0007 2.513 45.4373 2.51401C44.9728 2.51401 44.6226 2.6182 44.3882 2.82357C44.2774 2.91242 44.1879 3.02682 44.1267 3.15782C44.0654 3.28881 44.0341 3.43283 44.0351 3.57859C44.0386 3.69169 44.0664 3.80253 44.1165 3.9029C44.1666 4.00327 44.2377 4.0906 44.3245 4.15844C44.5126 4.33663 44.9598 4.50273 45.6659 4.65676C47.4139 5.04937 48.6681 5.44701 49.4282 5.84969C50.1884 6.25237 50.7383 6.75118 51.0779 7.34614C51.4244 7.94968 51.6033 8.6419 51.5945 9.34543C51.5986 10.1973 51.3593 11.0311 50.9071 11.7404C50.4365 12.4798 49.7669 13.0577 48.9826 13.4014C48.1577 13.7789 47.1188 13.9677 45.8656 13.9677C43.6651 13.9677 42.1409 13.5257 41.2929 12.6419C40.445 11.758 39.9626 10.633 39.8459 9.26691ZM0.907299 13.7412V0.230824H7.5724C8.80818 0.230824 9.75262 0.341057 10.4057 0.561523C11.049 0.775944 11.6052 1.20859 11.9859 1.7907C12.4002 2.4368 12.6111 3.20166 12.5893 3.97875C12.6061 4.65688 12.446 5.32704 12.1263 5.91764C11.8194 6.46514 11.3848 6.92277 10.863 7.24799C10.4243 7.50051 9.95081 7.68082 9.45935 7.78254C9.82708 7.89555 10.1774 8.06284 10.4998 8.27935C10.7393 8.48714 10.9549 8.72329 11.1423 8.98302C11.353 9.24117 11.5396 9.51978 11.6994 9.81506L13.6355 13.7412H9.1164L6.98056 9.60818C6.70948 9.07363 6.4683 8.72632 6.25703 8.56625C5.96914 8.35806 5.62617 8.24879 5.27593 8.25367H4.91996V13.7412H0.907299ZM4.91996 5.7017H6.61011C6.9678 5.67383 7.32233 5.61217 7.66935 5.51748C7.92867 5.46556 8.15995 5.31418 8.31763 5.09316C8.48437 4.8699 8.57319 4.59399 8.56941 4.31096C8.5803 4.12306 8.55013 3.93503 8.48119 3.76108C8.41226 3.58712 8.30635 3.43178 8.17148 3.30678C7.90715 3.07323 7.40985 2.95645 6.67957 2.95645H4.91996V5.7017ZM0 25.302L3.80429 25.0544C3.88725 25.6997 4.05511 26.191 4.30786 26.5282C4.71593 27.0748 5.30584 27.3481 6.0776 27.3481C6.64774 27.3481 7.08764 27.2082 7.39731 26.9284C7.53912 26.8126 7.65431 26.6651 7.73443 26.4969C7.81456 26.3286 7.85758 26.1438 7.86036 25.9559C7.85781 25.7758 7.81765 25.5985 7.74267 25.4363C7.6677 25.274 7.55971 25.1308 7.42625 25.0166C7.13684 24.7408 6.45431 24.4801 5.37867 24.2344C3.62485 23.8217 2.37412 23.2751 1.62648 22.5945C1.26271 22.2762 0.97225 21.8764 0.776617 21.425C0.580983 20.9736 0.485191 20.482 0.496337 19.9867C0.49954 19.2871 0.700924 18.6041 1.07516 18.0236C1.50301 17.3696 2.10739 16.863 2.81161 16.568C3.58337 16.2146 4.64454 16.0379 5.99512 16.0379C7.64861 16.0379 8.90947 16.3591 9.7777 17.0013C10.6459 17.6436 11.1625 18.6644 11.3275 20.0637L7.56516 20.2947C7.46869 19.6907 7.25839 19.2483 6.93425 18.9674C6.61011 18.6866 6.16683 18.5486 5.60441 18.5537C5.14039 18.5537 4.79069 18.6543 4.55531 18.8557C4.44458 18.9445 4.35508 19.0589 4.29382 19.1899C4.23256 19.3209 4.20121 19.4649 4.20223 19.6107C4.20552 19.7241 4.23325 19.8352 4.28336 19.9358C4.33346 20.0365 4.40465 20.1241 4.49163 20.1921C4.67975 20.3702 5.12689 20.5358 5.83305 20.6889C7.58108 21.0815 8.83519 21.4791 9.59537 21.8818C10.3556 22.2845 10.9054 22.7833 11.245 23.3783C11.5913 23.9819 11.7702 24.674 11.7616 25.3775C11.7659 26.2294 11.5266 27.0633 11.0743 27.7725C10.6036 28.512 9.93404 29.0898 9.14968 29.4335C8.32486 29.811 7.28588 29.9998 6.03274 29.9998C3.83226 29.9998 2.30804 29.5578 1.46007 28.674C0.612101 27.7901 0.125411 26.6661 0 25.302ZM23.5869 24.2435L27.0916 25.3489C26.8978 26.2767 26.5186 27.1514 25.9788 27.9159C25.487 28.5915 24.84 29.1269 24.0977 29.4728C23.3471 29.8221 22.3921 29.9968 21.2325 29.9968C19.826 29.9968 18.677 29.7838 17.7857 29.358C16.8943 28.9322 16.1225 28.1817 15.4704 27.1065C14.8221 26.0324 14.4984 24.6578 14.4994 22.9826C14.4994 20.7498 15.0686 19.0329 16.2069 17.8319C17.3453 16.6309 18.9563 16.0309 21.0401 16.0319C22.6714 16.0319 23.953 16.3762 24.8849 17.0648C25.8168 17.7533 26.5094 18.8104 26.9628 20.2359L23.432 21.0558C23.3491 20.7344 23.2183 20.4287 23.0442 20.1498C22.8304 19.8399 22.5492 19.5874 22.2238 19.4129C21.8865 19.2375 21.5138 19.149 21.137 19.1547C20.2312 19.1547 19.5371 19.5352 19.0547 20.2963C18.6881 20.861 18.5053 21.7474 18.5063 22.9554C18.5063 24.4514 18.7243 25.4772 19.1604 26.0329C19.5964 26.5886 20.2085 26.8659 20.9967 26.8649C21.7607 26.8649 22.3395 26.6409 22.7331 26.193C23.1267 25.745 23.4113 25.0952 23.5869 24.2435ZM30.1724 16.266H34.1706V20.9894H38.5407V16.266H42.5562V29.7703H38.5407V24.3115H34.1706V29.7748H30.1724V16.266ZM45.0451 23.0264C45.0451 20.8238 45.6336 19.1073 46.8105 17.8772C47.9875 16.647 49.6274 16.0329 51.7305 16.0349C53.8837 16.0349 55.543 16.6389 56.7083 17.847C57.8737 19.055 58.4578 20.7447 58.4607 22.9162C58.4607 24.4957 58.206 25.7903 57.6967 26.8C57.201 27.7964 56.433 28.6168 55.4899 29.1572C54.5252 29.7189 53.3261 29.9998 51.8926 29.9998C50.4339 29.9998 49.2281 29.7572 48.2749 29.2719C47.2957 28.7655 46.4854 27.9631 45.9495 26.9691C45.3456 25.9202 45.0442 24.6059 45.0451 23.0264ZM49.0433 23.046C49.0433 24.4101 49.2845 25.3896 49.7669 25.9846C50.2492 26.5795 50.91 26.877 51.7493 26.877C52.6089 26.877 53.274 26.5856 53.7448 26.0027C54.2156 25.4198 54.4509 24.3729 54.4509 22.8618C54.4509 21.5904 54.2049 20.6612 53.7129 20.0743C53.221 19.4874 52.5543 19.1944 51.7131 19.1954C51.3474 19.1817 50.9834 19.2544 50.6483 19.4082C50.3133 19.562 50.0159 19.7928 49.7784 20.0833C49.2893 20.6874 49.0443 21.6749 49.0433 23.046Z" fill="white"/>
<path d="M56.7648 23.0266C56.7648 20.8239 57.3532 19.1075 58.5302 17.8774C59.7071 16.6472 61.3471 16.0331 63.4501 16.0351C65.6053 16.0351 67.265 16.6391 68.4294 17.8472C69.5938 19.0552 70.176 20.7454 70.176 22.9179C70.176 24.4974 69.9218 25.792 69.4134 26.8017C68.9173 27.7978 68.1494 28.6181 67.2067 29.1589C66.242 29.7206 65.0428 30.0015 63.6093 30.0015C62.1497 30.0015 60.9438 29.7589 59.9917 29.2736C59.0123 28.7669 58.2016 27.9645 57.6648 26.9708C57.0648 25.9208 56.7648 24.6061 56.7648 23.0266ZM60.7644 23.0462C60.7644 24.4103 61.0056 25.3898 61.4879 25.9848C61.9703 26.5797 62.6321 26.8777 63.4733 26.8787C64.3328 26.8787 64.998 26.5873 65.4688 26.0044C65.9395 25.4215 66.1749 24.3746 66.1749 22.8635C66.1749 21.5921 65.9294 20.6629 65.4384 20.076C64.9473 19.4891 64.2807 19.1961 63.4386 19.1971C63.0722 19.1824 62.7074 19.2545 62.3715 19.408C62.0357 19.5616 61.7375 19.7925 61.4995 20.0835C61.0085 20.6875 60.7634 21.6751 60.7644 23.0462Z" fill="white"/>
<path d="M69.7592 16.2661H73.7588V26.4453H79.9999V29.7674H69.7592V16.2661Z" fill="white"/>
</g>
<defs>
<clipPath id="clip0_10_153">
<rect width="80" height="30" fill="white"/>
</clipPath>
</defs>
</svg>
